<svg width="113" height="76" viewBox="0 0 113 76" fill="none" xmlns="http://www.w3.org/2000/svg">
<path d="M14.9238 12.0293C15.0176 12.1816 15.0645 12.3047 15.0645 12.3984C15.0645 12.5039 15.0352 12.6035 14.9766 12.6973C14.918 12.791 14.8418 12.8848 14.748 12.9785C14.666 13.0605 14.5781 13.1426 14.4844 13.2246C14.3906 13.3066 14.3145 13.3945 14.2559 13.4883C14.1504 13.6523 14.0566 13.8164 13.9746 13.9805C13.9043 14.1328 13.8223 14.2734 13.7285 14.4023C13.6465 14.5312 13.5469 14.6367 13.4297 14.7188C13.3242 14.8008 13.1836 14.8418 13.0078 14.8418C12.9492 14.8418 12.8789 14.8301 12.7969 14.8066C12.7266 14.7832 12.6562 14.7715 12.5859 14.7715C12.457 14.7715 12.3398 14.8125 12.2344 14.8945C12.1406 14.9648 12.0293 15.0176 11.9004 15.0527C11.7363 15.0996 11.5898 15.1406 11.4609 15.1758C11.3438 15.2109 11.1855 15.2578 10.9863 15.3164H10.7754C10.6465 15.3164 10.5176 15.3516 10.3887 15.4219C10.2715 15.4922 10.0781 15.5918 9.80859 15.7207C9.66797 15.7676 9.48047 15.7852 9.24609 15.7734C9.02344 15.7617 8.77148 15.7852 8.49023 15.8438C8.45508 15.8555 8.4082 15.9023 8.34961 15.9844C8.29102 16.0547 8.25 16.0957 8.22656 16.1074C8.0625 16.1543 7.875 16.1953 7.66406 16.2305C7.45312 16.2539 7.25391 16.3008 7.06641 16.3711C6.89062 16.4297 6.73828 16.5234 6.60938 16.6523C6.49219 16.7812 6.43359 16.9688 6.43359 17.2148C6.43359 17.4023 6.48047 17.6309 6.57422 17.9004C6.66797 18.1582 6.76758 18.416 6.87305 18.6738C6.99023 18.9199 7.10156 19.1367 7.20703 19.3242C7.32422 19.5117 7.40039 19.623 7.43555 19.6582C7.54102 19.7754 7.63477 19.9043 7.7168 20.0449C7.79883 20.1738 7.88086 20.3203 7.96289 20.4844C8.05664 20.6367 8.15039 20.8008 8.24414 20.9766C8.34961 21.1406 8.47852 21.3105 8.63086 21.4863C8.72461 21.6035 8.83008 21.7148 8.94727 21.8203C9.06445 21.9258 9.17578 22.0254 9.28125 22.1191C9.38672 22.2129 9.47461 22.3066 9.54492 22.4004C9.62695 22.4941 9.66797 22.582 9.66797 22.6641C9.71484 22.8047 9.86719 22.9805 10.125 23.1914C10.3828 23.4023 10.623 23.666 10.8457 23.9824C10.8691 24.0176 10.916 24.0703 10.9863 24.1406C11.0566 24.1992 11.127 24.2637 11.1973 24.334C11.2793 24.4043 11.3496 24.4805 11.4082 24.5625C11.4785 24.6328 11.5137 24.7031 11.5137 24.7734C11.5137 24.8672 11.5605 24.9316 11.6543 24.9668C11.748 25.002 11.8301 25.0664 11.9004 25.1602C11.959 25.2305 12 25.3125 12.0234 25.4062C12.0469 25.5 12.0938 25.5938 12.1641 25.6875C12.3047 25.8984 12.4688 26.127 12.6562 26.373C12.8555 26.6074 12.9551 26.9004 12.9551 27.252C12.9551 27.4746 12.9082 27.6973 12.8145 27.9199C12.791 27.9785 12.7441 28.0137 12.6738 28.0254C12.6152 28.0371 12.5801 28.0898 12.5684 28.1836C12.5215 28.3477 12.4746 28.5059 12.4277 28.6582C12.3809 28.7988 12.293 28.9453 12.1641 29.0977C12.0352 29.25 11.8887 29.3906 11.7246 29.5195C11.5605 29.6484 11.3965 29.8125 11.2324 30.0117C11.1152 30.1641 10.9922 30.2988 10.8633 30.416C10.7344 30.5332 10.5879 30.6562 10.4238 30.7852C10.2715 30.9141 10.0898 31.0605 9.87891 31.2246C9.66797 31.3887 9.42188 31.5996 9.14062 31.8574C9.04688 31.9512 8.92383 32.0625 8.77148 32.1914C8.61914 32.3086 8.39062 32.4141 8.08594 32.5078C7.92188 32.5664 7.69922 32.6133 7.41797 32.6484C7.13672 32.6836 6.82031 32.7188 6.46875 32.7539C6.11719 32.7773 5.74219 32.8008 5.34375 32.8242C4.94531 32.8477 4.54688 32.8711 4.14844 32.8945C3.85547 32.9297 3.55664 32.9648 3.25195 33C2.94727 33.0234 2.63672 33.0352 2.32031 33.0352C1.82812 33.0352 1.44727 33.0059 1.17773 32.9473C0.919922 32.877 0.791016 32.707 0.791016 32.4375C0.791016 32.3203 0.814453 32.2148 0.861328 32.1211C0.919922 32.0156 0.990234 31.9219 1.07227 31.8398C1.1543 31.7461 1.23633 31.6582 1.31836 31.5762C1.40039 31.4941 1.4707 31.4121 1.5293 31.3301C1.64648 31.1543 1.75195 31.002 1.8457 30.873C1.93945 30.7324 2.0332 30.6152 2.12695 30.5215C2.23242 30.4277 2.33789 30.3574 2.44336 30.3105C2.54883 30.2637 2.67773 30.2402 2.83008 30.2402C2.99414 30.2402 3.16992 30.2578 3.35742 30.293C3.54492 30.3164 3.72656 30.3516 3.90234 30.3984C4.08984 30.4336 4.25977 30.4688 4.41211 30.5039C4.56445 30.5273 4.6875 30.5391 4.78125 30.5391C4.93359 30.5391 5.08008 30.5215 5.2207 30.4863C5.37305 30.4395 5.54297 30.416 5.73047 30.416C5.92969 30.416 6.14648 30.4395 6.38086 30.4863C6.62695 30.5215 6.84961 30.5391 7.04883 30.5391C7.3418 30.5391 7.68164 30.5215 8.06836 30.4863C8.45508 30.4395 8.82422 30.3691 9.17578 30.2754C9.52734 30.1816 9.82031 30.0645 10.0547 29.9238C10.3008 29.7715 10.4238 29.5957 10.4238 29.3965C10.4238 29.291 10.3828 29.1445 10.3008 28.957C10.2188 28.7695 10.1133 28.5645 9.98438 28.3418C9.86719 28.1191 9.73242 27.8906 9.58008 27.6562C9.42773 27.4219 9.28125 27.1992 9.14062 26.9883C9.07031 26.8945 8.98242 26.8125 8.87695 26.7422C8.77148 26.6602 8.68945 26.5723 8.63086 26.4785C8.56055 26.373 8.51367 26.2617 8.49023 26.1445C8.4668 26.0156 8.41992 25.9043 8.34961 25.8105C8.2207 25.6348 8.0625 25.4766 7.875 25.3359C7.69922 25.1836 7.55273 25.0371 7.43555 24.8965C7.23633 24.6621 7.04883 24.3926 6.87305 24.0879C6.69727 23.7832 6.49219 23.4844 6.25781 23.1914C6.1875 23.1094 6.13477 23.0508 6.09961 23.0156C6.06445 22.9805 5.98828 22.8633 5.87109 22.6641C5.74219 22.5 5.58398 22.3477 5.39648 22.207C5.2207 22.0664 5.06836 21.9141 4.93945 21.75C4.89258 21.6914 4.86914 21.627 4.86914 21.5566C4.88086 21.4746 4.86328 21.4102 4.81641 21.3633C4.67578 21.2227 4.51758 21.0762 4.3418 20.9238C4.16602 20.7598 4.07812 20.5488 4.07812 20.291C4.07812 20.1152 4.02539 19.8926 3.91992 19.623C3.82617 19.3535 3.7793 19.0488 3.7793 18.709C3.7793 18.4746 3.83203 18.2871 3.9375 18.1465C4.04297 18.0059 4.11328 17.8535 4.14844 17.6895C4.19531 17.5957 4.21875 17.5078 4.21875 17.4258C4.21875 17.332 4.24219 17.2383 4.28906 17.1445C4.3125 17.1211 4.35938 17.1035 4.42969 17.0918C4.5 17.0684 4.54102 17.0449 4.55273 17.0215C4.59961 16.916 4.64648 16.834 4.69336 16.7754C4.75195 16.7051 4.82227 16.6348 4.9043 16.5645C4.98633 16.4824 5.0918 16.3887 5.2207 16.2832C5.34961 16.1777 5.51953 16.0312 5.73047 15.8438C5.76562 15.8203 5.78906 15.7793 5.80078 15.7207C5.8125 15.6504 5.83594 15.6035 5.87109 15.5801C5.95312 15.5098 6.04102 15.4629 6.13477 15.4395C6.22852 15.416 6.31055 15.375 6.38086 15.3164C6.69727 15.1055 6.97266 14.9238 7.20703 14.7715C7.45312 14.6191 7.68164 14.4844 7.89258 14.3672C8.10352 14.2383 8.31445 14.127 8.52539 14.0332C8.73633 13.9395 8.98242 13.8457 9.26367 13.752L11.6367 12.9609C11.7656 12.832 11.9355 12.7617 12.1465 12.75C12.3574 12.7266 12.5801 12.668 12.8145 12.5742C13.0488 12.4453 13.3477 12.3398 13.7109 12.2578C14.0742 12.1641 14.4785 12.0879 14.9238 12.0293ZM23.9305 30.576L24.4825 30.984C24.2585 31.464 23.8425 31.92 23.2345 32.352C22.6425 32.784 22.0985 33 21.6025 33C20.6585 33 20.1865 32.504 20.1865 31.512C20.1865 31.048 20.3065 30.496 20.5465 29.856L19.6585 30.768C18.7945 31.648 18.0425 32.24 17.4025 32.544C16.7785 32.848 16.1625 33 15.5545 33C14.9465 33 14.4825 32.832 14.1625 32.496C13.8585 32.144 13.7065 31.664 13.7065 31.056C13.7065 29.936 14.1385 28.832 15.0025 27.744C15.8665 26.64 16.9705 25.744 18.3145 25.056C19.6585 24.368 21.0025 24.016 22.3465 24L22.3945 24.792L21.3865 25.008C19.9305 25.328 18.6425 25.968 17.5225 26.928C16.4185 27.888 15.8665 28.848 15.8665 29.808C15.8665 30.752 16.2505 31.224 17.0185 31.224C17.7385 31.224 18.6265 30.72 19.6825 29.712C20.7385 28.704 21.6185 27.52 22.3225 26.16L23.3305 26.76C22.3385 28.76 21.8425 30.032 21.8425 30.576C21.8425 30.8 21.9145 30.992 22.0585 31.152C22.2185 31.296 22.3705 31.368 22.5145 31.368C22.6745 31.368 22.7785 31.36 22.8265 31.344C22.8745 31.328 22.9225 31.312 22.9705 31.296C23.0185 31.264 23.0745 31.224 23.1385 31.176C23.2185 31.128 23.2825 31.08 23.3305 31.032C23.3945 30.984 23.4905 30.912 23.6185 30.816C23.7465 30.72 23.8505 30.64 23.9305 30.576ZM31.6045 24.504C32.0045 24.504 32.3325 24.64 32.5885 24.912C32.8445 25.184 32.9725 25.536 32.9725 25.968C32.9725 26.832 32.4765 27.744 31.4845 28.704L30.9085 28.248C31.1325 27.752 31.2445 27.392 31.2445 27.168C31.2445 26.736 31.0045 26.52 30.5245 26.52C30.0445 26.52 29.5885 26.824 29.1565 27.432C28.7245 28.04 28.2125 28.984 27.6205 30.264C27.0445 31.528 26.6045 32.424 26.3005 32.952L24.9325 32.352C25.8125 30.352 26.3165 29.176 26.4445 28.824C26.8765 27.576 27.0925 25.992 27.0925 24.072L28.4365 23.712C28.3885 24.752 28.3165 25.56 28.2205 26.136C28.1245 26.696 27.8925 27.616 27.5245 28.896C29.1405 25.968 30.5005 24.504 31.6045 24.504ZM43.7118 30.576L44.2638 30.984C44.0398 31.464 43.6238 31.92 43.0158 32.352C42.4238 32.784 41.8798 33 41.3838 33C40.4398 33 39.9678 32.504 39.9678 31.512C39.9678 31.048 40.0878 30.496 40.3278 29.856L39.4398 30.768C38.5758 31.648 37.8238 32.24 37.1838 32.544C36.5598 32.848 35.9438 33 35.3358 33C34.7278 33 34.2638 32.832 33.9438 32.496C33.6398 32.144 33.4878 31.664 33.4878 31.056C33.4878 29.936 33.9198 28.832 34.7838 27.744C35.6478 26.64 36.7518 25.744 38.0958 25.056C39.4398 24.368 40.7838 24.016 42.1278 24L42.1758 24.792L41.1678 25.008C39.7118 25.328 38.4238 25.968 37.3038 26.928C36.1998 27.888 35.6478 28.848 35.6478 29.808C35.6478 30.752 36.0318 31.224 36.7998 31.224C37.5198 31.224 38.4078 30.72 39.4638 29.712C40.5198 28.704 41.3998 27.52 42.1038 26.16L43.1118 26.76C42.1198 28.76 41.6238 30.032 41.6238 30.576C41.6238 30.8 41.6958 30.992 41.8398 31.152C41.9998 31.296 42.1518 31.368 42.2958 31.368C42.4558 31.368 42.5598 31.36 42.6078 31.344C42.6558 31.328 42.7038 31.312 42.7518 31.296C42.7998 31.264 42.8558 31.224 42.9198 31.176C42.9998 31.128 43.0638 31.08 43.1118 31.032C43.1758 30.984 43.2718 30.912 43.3998 30.816C43.5278 30.72 43.6318 30.64 43.7118 30.576ZM52.5138 24.408L53.3298 25.056C51.2018 27.856 49.7618 30.192 49.0098 32.064C48.7538 32.688 48.3858 33 47.9058 33C47.6018 33 47.3298 32.84 47.0898 32.52C46.8658 32.2 46.7138 31.912 46.6338 31.656C46.5698 31.384 46.4578 30.824 46.2978 29.976C46.1378 29.128 45.9618 28.248 45.7698 27.336C45.5778 26.408 45.4178 25.72 45.2898 25.272C45.1778 24.808 45.0978 24.504 45.0498 24.36C45.0178 24.216 44.9538 24.096 44.8578 24C44.7618 23.888 44.7058 23.816 44.6898 23.784L46.2498 23.928C46.7138 25.064 47.0818 26.296 47.3538 27.624C47.4178 27.896 47.5298 28.448 47.6898 29.28C47.8498 30.096 47.9778 30.736 48.0738 31.2C48.9538 29.504 49.7218 28.128 50.3778 27.072C51.0498 26 51.7618 25.112 52.5138 24.408ZM64.079 30.576L64.631 30.984C64.407 31.464 63.991 31.92 63.383 32.352C62.791 32.784 62.247 33 61.751 33C60.807 33 60.335 32.504 60.335 31.512C60.335 31.048 60.455 30.496 60.695 29.856L59.807 30.768C58.943 31.648 58.191 32.24 57.551 32.544C56.927 32.848 56.311 33 55.703 33C55.095 33 54.631 32.832 54.311 32.496C54.007 32.144 53.855 31.664 53.855 31.056C53.855 29.936 54.287 28.832 55.151 27.744C56.015 26.64 57.119 25.744 58.463 25.056C59.807 24.368 61.151 24.016 62.495 24L62.543 24.792L61.535 25.008C60.079 25.328 58.791 25.968 57.671 26.928C56.567 27.888 56.015 28.848 56.015 29.808C56.015 30.752 56.399 31.224 57.167 31.224C57.887 31.224 58.775 30.72 59.831 29.712C60.887 28.704 61.767 27.52 62.471 26.16L63.479 26.76C62.487 28.76 61.991 30.032 61.991 30.576C61.991 30.8 62.063 30.992 62.207 31.152C62.367 31.296 62.519 31.368 62.663 31.368C62.823 31.368 62.927 31.36 62.975 31.344C63.023 31.328 63.071 31.312 63.119 31.296C63.167 31.264 63.223 31.224 63.287 31.176C63.367 31.128 63.431 31.08 63.479 31.032C63.543 30.984 63.639 30.912 63.767 30.816C63.895 30.72 63.999 30.64 64.079 30.576ZM75.089 30.096L75.593 30.48C75.241 31.184 74.753 31.776 74.129 32.256C73.521 32.736 72.969 32.976 72.473 32.976C71.977 32.976 71.585 32.832 71.297 32.544C71.009 32.256 70.865 31.896 70.865 31.464C70.865 31.032 71.137 30.28 71.681 29.208C72.241 28.12 72.521 27.32 72.521 26.808C72.521 26.584 72.425 26.384 72.233 26.208C72.057 26.016 71.841 25.92 71.585 25.92C70.769 25.92 69.945 26.544 69.113 27.792C68.281 29.024 67.353 30.808 66.329 33.144L64.889 32.64C65.193 30.784 65.625 28.976 66.185 27.216C66.761 25.44 67.289 24.168 67.769 23.4L68.753 23.712C68.305 24.848 67.737 26.808 67.049 29.592C69.257 25.816 71.289 23.928 73.145 23.928C73.545 23.928 73.873 24.064 74.129 24.336C74.401 24.608 74.537 24.928 74.537 25.296C74.537 25.664 74.489 26 74.393 26.304C74.297 26.592 73.993 27.28 73.481 28.368C72.985 29.44 72.737 30.112 72.737 30.384C72.737 30.656 72.817 30.872 72.977 31.032C73.137 31.176 73.289 31.248 73.433 31.248C73.577 31.248 73.697 31.224 73.793 31.176C73.889 31.128 73.993 31.056 74.105 30.96C74.233 30.864 74.345 30.776 74.441 30.696C74.537 30.616 74.649 30.512 74.777 30.384C74.921 30.24 75.025 30.144 75.089 30.096ZM86.4618 30.576L87.0138 30.984C86.7898 31.464 86.3738 31.92 85.7658 32.352C85.1738 32.784 84.6298 33 84.1338 33C83.1898 33 82.7178 32.504 82.7178 31.512C82.7178 31.048 82.8378 30.496 83.0778 29.856L82.1898 30.768C81.3258 31.648 80.5738 32.24 79.9338 32.544C79.3098 32.848 78.6938 33 78.0858 33C77.4778 33 77.0138 32.832 76.6938 32.496C76.3898 32.144 76.2378 31.664 76.2378 31.056C76.2378 29.936 76.6698 28.832 77.5338 27.744C78.3978 26.64 79.5018 25.744 80.8458 25.056C82.1898 24.368 83.5338 24.016 84.8778 24L84.9258 24.792L83.9178 25.008C82.4618 25.328 81.1738 25.968 80.0538 26.928C78.9498 27.888 78.3978 28.848 78.3978 29.808C78.3978 30.752 78.7818 31.224 79.5498 31.224C80.2698 31.224 81.1578 30.72 82.2138 29.712C83.2698 28.704 84.1498 27.52 84.8538 26.16L85.8618 26.76C84.8698 28.76 84.3738 30.032 84.3738 30.576C84.3738 30.8 84.4458 30.992 84.5898 31.152C84.7498 31.296 84.9018 31.368 85.0458 31.368C85.2058 31.368 85.3098 31.36 85.3578 31.344C85.4058 31.328 85.4538 31.312 85.5018 31.296C85.5498 31.264 85.6058 31.224 85.6698 31.176C85.7498 31.128 85.8138 31.08 85.8618 31.032C85.9258 30.984 86.0218 30.912 86.1498 30.816C86.2778 30.72 86.3818 30.64 86.4618 30.576Z" fill="#272377"/>
<path d="M24.3633 53.5C24.3281 53.7812 24.2109 54.0215 24.0117 54.2207C23.8125 54.4082 23.625 54.6133 23.4492 54.8359C23.2383 55.0703 23.0625 55.2695 22.9219 55.4336C22.793 55.5859 22.6758 55.7383 22.5703 55.8906C22.4648 56.043 22.3652 56.207 22.2715 56.3828C22.1895 56.5586 22.0957 56.7812 21.9902 57.0508C21.9668 57.0977 21.9375 57.1328 21.9023 57.1562C21.8789 57.1797 21.8672 57.2324 21.8672 57.3145C21.8438 57.5723 21.6914 57.7656 21.4102 57.8945C21.1406 58.0234 20.8066 58.1113 20.4082 58.1582C20.0215 58.2168 19.6055 58.2461 19.1602 58.2461C18.7266 58.2461 18.3398 58.2461 18 58.2461C17.7656 58.2461 17.5195 58.2402 17.2617 58.2285C17.0156 58.2285 16.7754 58.2285 16.541 58.2285C16.3066 58.2285 16.0957 58.252 15.9082 58.2988C15.7324 58.3457 15.5742 58.3691 15.4336 58.3691C15.1289 58.3691 14.8477 58.3457 14.5898 58.2988C14.332 58.252 14.0859 58.2285 13.8516 58.2285C13.6055 58.2402 13.3828 58.2695 13.1836 58.3164C12.9961 58.3633 12.8086 58.4102 12.6211 58.457C12.4336 58.5156 12.2461 58.5625 12.0586 58.5977C11.8828 58.6445 11.6895 58.668 11.4785 58.668C11.3965 58.668 11.3262 58.6562 11.2676 58.6328C11.209 58.6094 11.1797 58.5332 11.1797 58.4043C11.1797 58.2637 11.25 58.1699 11.3906 58.123C11.543 58.0762 11.707 58.0352 11.8828 58C12.0703 57.9648 12.2344 57.918 12.375 57.8594C12.5273 57.8008 12.6035 57.6953 12.6035 57.543V57.3672C12.6035 57.3086 12.6035 57.2441 12.6035 57.1738C12.6152 57.1035 12.6387 57.0215 12.6738 56.9277C12.6855 56.8926 12.7324 56.8516 12.8145 56.8047C12.8965 56.7461 12.9375 56.6816 12.9375 56.6113C12.9375 56.5879 12.9316 56.5586 12.9199 56.5234C12.9199 56.4883 12.9199 56.459 12.9199 56.4355C12.9199 56.4238 12.9258 56.4121 12.9375 56.4004C13.0547 56.2949 13.1309 56.0898 13.166 55.7852C13.2129 55.4688 13.2422 55.1172 13.2539 54.7305C13.2656 54.3438 13.2715 53.9512 13.2715 53.5527C13.2715 53.1426 13.2891 52.7793 13.3242 52.4629C13.3594 52.2051 13.4238 51.9473 13.5176 51.6895C13.6113 51.4316 13.6816 51.168 13.7285 50.8984C13.7285 50.8516 13.7344 50.7402 13.7461 50.5645C13.7695 50.3887 13.7871 50.2012 13.7988 50.002C13.8105 49.8027 13.8223 49.6094 13.834 49.4219C13.8457 49.2227 13.8516 49.082 13.8516 49C13.8516 48.9297 13.8223 48.8828 13.7637 48.8594C13.7168 48.8242 13.6641 48.8066 13.6055 48.8066C13.4766 48.8066 13.3301 48.8535 13.166 48.9473C13.0137 49.041 12.8555 49.1465 12.6914 49.2637C12.5273 49.3809 12.3633 49.4863 12.1992 49.5801C12.0352 49.6738 11.8887 49.7207 11.7598 49.7207C11.666 49.7207 11.6133 49.6914 11.6016 49.6328C11.5898 49.5742 11.584 49.5156 11.584 49.457C11.584 49.3164 11.6367 49.1934 11.7422 49.0879C11.8477 48.9707 11.9766 48.8594 12.1289 48.7539C12.2812 48.6484 12.4395 48.5488 12.6035 48.4551C12.7793 48.3496 12.9316 48.2441 13.0605 48.1387C13.1191 48.0801 13.1484 48.0215 13.1484 47.9629C13.1484 47.9043 13.1777 47.875 13.2363 47.875C13.2598 47.875 13.2891 47.8809 13.3242 47.8926C13.3594 47.8926 13.3887 47.8926 13.4121 47.8926C13.4707 47.8926 13.5059 47.8516 13.5176 47.7695C13.5293 47.6758 13.5586 47.6172 13.6055 47.5938C13.7109 47.5586 13.7988 47.5293 13.8691 47.5059C13.9395 47.4707 13.998 47.4062 14.0449 47.3125C14.0918 47.207 14.127 47.0488 14.1504 46.8379C14.1738 46.627 14.1855 46.3164 14.1855 45.9062C14.1855 45.5078 14.2324 45.1973 14.3262 44.9746C14.4316 44.7402 14.4961 44.5234 14.5195 44.3242C14.543 44.1367 14.5605 43.9316 14.5723 43.709C14.584 43.4863 14.5898 43.2637 14.5898 43.041C14.6016 42.8066 14.6074 42.5898 14.6074 42.3906C14.6191 42.1797 14.6309 41.9922 14.6426 41.8281C14.666 41.582 14.7012 41.3418 14.748 41.1074C14.7949 40.873 14.8184 40.6738 14.8184 40.5098C14.8184 40.2754 14.7422 40.123 14.5898 40.0527C14.4375 39.9824 14.2852 39.9473 14.1328 39.9473C14.0039 39.9473 13.8633 39.959 13.7109 39.9824C13.5703 39.9941 13.4355 40 13.3066 40C13.1777 40 13.0547 39.9824 12.9375 39.9473C12.832 39.9121 12.7441 39.8359 12.6738 39.7188C12.7324 39.5312 12.8438 39.3965 13.0078 39.3145C13.1836 39.2324 13.3828 39.1797 13.6055 39.1562C13.8398 39.1211 14.0801 39.1094 14.3262 39.1211C14.584 39.1211 14.8184 39.1094 15.0293 39.0859C15.4512 39.0508 15.8848 39.0273 16.3301 39.0156C16.7754 39.0039 17.2207 38.9805 17.666 38.9453C17.9355 38.9219 18.1992 38.875 18.457 38.8047C18.7266 38.7227 19.0078 38.6816 19.3008 38.6816C19.418 38.6816 19.5293 38.6875 19.6348 38.6992C19.752 38.6992 19.875 38.6992 20.0039 38.6992C20.3672 38.6992 20.6953 38.6523 20.9883 38.5586C21.293 38.4648 21.6387 38.418 22.0254 38.418C22.1074 38.418 22.1602 38.4238 22.1836 38.4355C22.2188 38.4473 22.2422 38.4648 22.2539 38.4883C22.2656 38.5 22.2773 38.5117 22.2891 38.5234C22.3008 38.5352 22.3242 38.541 22.3594 38.541C22.3828 38.541 22.3945 38.5352 22.3945 38.5234C22.4062 38.5117 22.418 38.5 22.4297 38.4883C22.4414 38.4648 22.459 38.4473 22.4824 38.4355C22.5176 38.4238 22.582 38.418 22.6758 38.418C22.7695 38.418 22.8574 38.4238 22.9395 38.4355C23.0332 38.4355 23.127 38.4355 23.2207 38.4355C23.3262 38.4355 23.4199 38.418 23.502 38.3828C23.584 38.3477 23.6602 38.3125 23.7305 38.2773C23.8125 38.2422 23.8945 38.207 23.9766 38.1719C24.0703 38.1367 24.1816 38.1191 24.3105 38.1191C24.5449 38.1191 24.709 38.1777 24.8027 38.2949C24.9082 38.4121 24.9609 38.5586 24.9609 38.7344C24.9609 38.9102 24.9258 39.1094 24.8555 39.332C24.7852 39.543 24.7031 39.7598 24.6094 39.9824C24.5156 40.1934 24.416 40.3984 24.3105 40.5977C24.2168 40.7852 24.1406 40.9375 24.082 41.0547C24.0352 41.1484 23.9941 41.2598 23.959 41.3887C23.9355 41.5059 23.8945 41.6055 23.8359 41.6875C23.7773 41.7578 23.707 41.8281 23.625 41.8984C23.543 41.957 23.4844 42.0215 23.4492 42.0918C23.4141 42.127 23.3848 42.1973 23.3613 42.3027C23.3496 42.3965 23.332 42.4961 23.3086 42.6016C23.2852 42.6953 23.25 42.7832 23.2031 42.8652C23.1562 42.9355 23.0918 42.9707 23.0098 42.9707C22.9043 42.9707 22.8223 42.9355 22.7637 42.8652C22.7051 42.7832 22.6758 42.6895 22.6758 42.584C22.6758 42.3496 22.7168 42.0918 22.7988 41.8105C22.8809 41.5176 22.9219 41.2012 22.9219 40.8613C22.9219 40.6621 22.8926 40.4688 22.834 40.2812C22.7871 40.082 22.6758 39.9824 22.5 39.9824C22.3594 39.9824 22.1777 40.0059 21.9551 40.0527C21.7324 40.0996 21.5742 40.123 21.4805 40.123C21.2578 40.123 20.9473 40.1055 20.5488 40.0703C20.1621 40.0352 19.7637 40.0176 19.3535 40.0176C18.9785 40.0176 18.6621 40.0469 18.4043 40.1055C18.1465 40.1523 17.9297 40.2754 17.7539 40.4746C17.5898 40.6621 17.4551 40.9492 17.3496 41.3359C17.2559 41.7109 17.1855 42.2266 17.1387 42.8828V43.0938C17.1504 43.2578 17.1094 43.5156 17.0156 43.8672C16.9219 44.207 16.875 44.582 16.875 44.9922V45.2559C16.875 45.373 16.8516 45.4727 16.8047 45.5547C16.7695 45.625 16.752 45.6543 16.752 45.6426C16.752 45.7012 16.7695 45.7891 16.8047 45.9062C16.8516 46.0117 16.875 46.1406 16.875 46.293C16.875 46.3164 16.8457 46.375 16.7871 46.4688C16.7402 46.5508 16.7168 46.6328 16.7168 46.7148C16.7168 46.7734 16.8105 46.8262 16.998 46.873C17.1973 46.9199 17.4316 46.9609 17.7012 46.9961C17.9707 47.0195 18.2461 47.043 18.5273 47.0664C18.8086 47.0781 19.043 47.084 19.2305 47.084C19.3945 47.084 19.5645 47.0605 19.7402 47.0137C19.9277 46.9668 20.1445 46.9434 20.3906 46.9434C20.5078 46.9434 20.6191 46.9492 20.7246 46.9609C20.8418 46.9727 20.9473 46.9785 21.041 46.9785C21.1113 46.9785 21.1641 46.9727 21.1992 46.9609C21.5273 46.8789 21.7734 46.7676 21.9375 46.627C22.1133 46.4863 22.2715 46.3457 22.4121 46.2051C22.5527 46.0645 22.7109 45.9414 22.8867 45.8359C23.0742 45.7188 23.3438 45.6484 23.6953 45.625C23.7422 45.6836 23.7656 45.7539 23.7656 45.8359C23.7656 45.9648 23.707 46.0879 23.5898 46.2051C23.4844 46.3223 23.3906 46.4395 23.3086 46.5566C23.2852 46.5801 23.2617 46.6445 23.2383 46.75C23.2266 46.8555 23.2031 46.9258 23.168 46.9609C23.1094 47.0195 23.0273 47.043 22.9219 47.0312C22.8164 47.0078 22.7285 47.0254 22.6582 47.084C22.5996 47.1074 22.5527 47.1484 22.5176 47.207C22.4941 47.2539 22.4531 47.3008 22.3945 47.3477C22.0312 47.5586 21.75 47.7578 21.5508 47.9453C21.3516 48.1328 21.1758 48.2969 21.0234 48.4375C20.8711 48.5664 20.7129 48.6719 20.5488 48.7539C20.3848 48.8242 20.1621 48.8594 19.8809 48.8594C19.3535 48.8594 18.8262 48.8125 18.2988 48.7188C17.7832 48.625 17.3027 48.5781 16.8574 48.5781C16.5645 48.5781 16.377 48.6777 16.2949 48.877C16.2129 49.0645 16.1719 49.293 16.1719 49.5625C16.1719 49.6562 16.1777 49.7441 16.1895 49.8262C16.2012 49.8965 16.207 49.9609 16.207 50.0195C16.207 50.0781 16.1953 50.1602 16.1719 50.2656C16.1484 50.3594 16.1191 50.4648 16.084 50.582C16.0605 50.6875 16.0371 50.793 16.0137 50.8984C15.9902 50.9922 15.9727 51.0742 15.9609 51.1445C15.9375 51.3438 15.9141 51.5371 15.8906 51.7246C15.8672 51.9121 15.8379 52.1289 15.8027 52.375C15.7793 52.6094 15.7441 52.8789 15.6973 53.1836C15.6621 53.4883 15.6211 53.8574 15.5742 54.291C15.5391 54.6309 15.498 54.9121 15.4512 55.1348C15.4043 55.3574 15.3457 55.5684 15.2754 55.7676C15.2051 55.9551 15.1172 56.1484 15.0117 56.3477C14.918 56.5352 14.7949 56.7695 14.6426 57.0508C14.6777 57.0508 14.707 57.0566 14.7305 57.0684C14.7656 57.0684 14.7949 57.0684 14.8184 57.0684C14.9707 57.0684 15.123 57.0449 15.2754 56.998C15.4395 56.9512 15.668 56.8867 15.9609 56.8047C16.0312 56.7578 16.1016 56.7109 16.1719 56.6641C16.2305 56.6289 16.2891 56.5996 16.3477 56.5762C16.4062 56.541 16.4648 56.5234 16.5234 56.5234C16.5586 56.5234 16.6113 56.5293 16.6816 56.541C16.752 56.5527 16.8164 56.5586 16.875 56.5586C16.9453 56.5586 16.9922 56.5469 17.0156 56.5234C17.0508 56.4883 17.1035 56.4707 17.1738 56.4707C17.3145 56.4707 17.5898 56.4941 18 56.541C18.4102 56.5762 18.8965 56.5938 19.459 56.5938C19.6816 56.5938 19.8926 56.5879 20.0918 56.5762C20.3027 56.5527 20.502 56.4941 20.6895 56.4004C20.7129 56.377 20.748 56.3359 20.7949 56.2773C20.8535 56.2188 20.9121 56.1543 20.9707 56.084C21.0293 56.0137 21.0879 55.9492 21.1465 55.8906C21.2168 55.832 21.2812 55.7852 21.3398 55.75C21.4102 55.7031 21.498 55.6855 21.6035 55.6973C21.709 55.6973 21.7969 55.668 21.8672 55.6094C21.9609 55.5391 22.043 55.4453 22.1133 55.3281C22.1836 55.1992 22.2773 55.0762 22.3945 54.959L23.3086 54.0449C23.3555 53.998 23.4023 53.9453 23.4492 53.8867C23.4961 53.8164 23.5488 53.752 23.6074 53.6934C23.6777 53.6348 23.7598 53.5879 23.8535 53.5527C23.9473 53.5176 24.0645 53.5 24.2051 53.5H24.3633ZM34.7648 55.096L35.2688 55.48C34.9168 56.184 34.4288 56.776 33.8048 57.256C33.1968 57.736 32.6448 57.976 32.1488 57.976C31.6528 57.976 31.2608 57.832 30.9728 57.544C30.6848 57.256 30.5408 56.896 30.5408 56.464C30.5408 56.032 30.8128 55.28 31.3568 54.208C31.9168 53.12 32.1968 52.32 32.1968 51.808C32.1968 51.584 32.1008 51.384 31.9088 51.208C31.7328 51.016 31.5168 50.92 31.2608 50.92C30.4448 50.92 29.6208 51.544 28.7888 52.792C27.9568 54.024 27.0288 55.808 26.0048 58.144L24.5648 57.64C24.8688 55.784 25.3008 53.976 25.8608 52.216C26.4368 50.44 26.9648 49.168 27.4448 48.4L28.4288 48.712C27.9808 49.848 27.4128 51.808 26.7248 54.592C28.9328 50.816 30.9648 48.928 32.8208 48.928C33.2208 48.928 33.5488 49.064 33.8048 49.336C34.0768 49.608 34.2128 49.928 34.2128 50.296C34.2128 50.664 34.1648 51 34.0688 51.304C33.9728 51.592 33.6688 52.28 33.1568 53.368C32.6608 54.44 32.4128 55.112 32.4128 55.384C32.4128 55.656 32.4928 55.872 32.6528 56.032C32.8128 56.176 32.9648 56.248 33.1088 56.248C33.2528 56.248 33.3728 56.224 33.4688 56.176C33.5648 56.128 33.6688 56.056 33.7808 55.96C33.9088 55.864 34.0208 55.776 34.1168 55.696C34.2128 55.616 34.3248 55.512 34.4528 55.384C34.5968 55.24 34.7008 55.144 34.7648 55.096ZM41.4576 55.312L41.9856 55.912C41.5856 56.536 41.0976 57.024 40.5216 57.376C39.9616 57.728 39.3936 57.904 38.8176 57.904C38.2416 57.904 37.7856 57.744 37.4496 57.424C37.1136 57.088 36.9456 56.632 36.9456 56.056C36.9456 54.712 37.4496 52.856 38.4576 50.488C37.6416 50.616 36.8256 50.808 36.0096 51.064L35.8416 50.128L35.8176 50.104C36.6176 49.768 37.6656 49.496 38.9616 49.288C39.0896 49.048 39.3776 48.464 39.8256 47.536C40.7216 45.696 41.3616 44.504 41.7456 43.96L42.7776 44.368C42.6176 44.72 42.3376 45.312 41.9376 46.144C41.5376 46.96 41.0896 47.888 40.5936 48.928C41.3136 48.88 41.8816 48.856 42.2976 48.856C42.7136 48.856 43.0336 48.92 43.2576 49.048V50.08C43.0336 50.032 42.7056 50.008 42.2736 50.008C41.8576 50.008 41.1056 50.08 40.0176 50.224C39.0736 52.336 38.6016 53.872 38.6016 54.832C38.6016 55.2 38.7136 55.504 38.9376 55.744C39.1776 55.984 39.4896 56.104 39.8736 56.104C40.2736 56.104 40.8016 55.84 41.4576 55.312ZM50.4834 55.168L51.0354 55.6C50.5394 56.288 49.8594 56.864 48.9954 57.328C48.1314 57.776 47.2914 58 46.4754 58C45.6594 58 45.0034 57.76 44.5074 57.28C44.0114 56.8 43.7634 56.168 43.7634 55.384C43.7634 53.912 44.5394 52.464 46.0914 51.04C47.6594 49.616 49.2434 48.904 50.8434 48.904C51.8994 48.904 52.4274 49.32 52.4274 50.152C52.4274 51.016 51.8674 51.888 50.7474 52.768C49.6434 53.648 48.0834 54.448 46.0674 55.168C46.2114 55.536 46.4354 55.824 46.7394 56.032C47.0434 56.24 47.3554 56.344 47.6754 56.344C48.3634 56.344 49.2994 55.952 50.4834 55.168ZM45.9474 54.448C47.2434 54 48.3554 53.44 49.2834 52.768C50.2114 52.096 50.6754 51.48 50.6754 50.92C50.6754 50.712 50.5954 50.528 50.4354 50.368C50.2754 50.208 50.0914 50.128 49.8834 50.128C49.1314 50.128 48.3154 50.6 47.4354 51.544C46.5714 52.472 46.0754 53.44 45.9474 54.448ZM59.6241 49.504C60.0241 49.504 60.3521 49.64 60.6081 49.912C60.8641 50.184 60.9921 50.536 60.9921 50.968C60.9921 51.832 60.4961 52.744 59.5041 53.704L58.9281 53.248C59.1521 52.752 59.2641 52.392 59.2641 52.168C59.2641 51.736 59.0241 51.52 58.5441 51.52C58.0641 51.52 57.6081 51.824 57.1761 52.432C56.7441 53.04 56.2321 53.984 55.6401 55.264C55.0641 56.528 54.6241 57.424 54.3201 57.952L52.9521 57.352C53.8321 55.352 54.3361 54.176 54.4641 53.824C54.8961 52.576 55.1121 50.992 55.1121 49.072L56.4561 48.712C56.4081 49.752 56.3361 50.56 56.2401 51.136C56.1441 51.696 55.9121 52.616 55.5441 53.896C57.1601 50.968 58.5201 49.504 59.6241 49.504ZM65.0113 53.584C66.2273 51.76 67.2833 50.52 68.1793 49.864C69.0753 49.192 69.8593 48.856 70.5313 48.856C71.2033 48.856 71.7233 49.064 72.0913 49.48C72.4593 49.88 72.6433 50.392 72.6433 51.016C72.6433 52.744 72.0193 54.344 70.7713 55.816C69.5393 57.272 68.1473 58 66.5953 58C65.9073 58 65.3633 57.88 64.9633 57.64L65.5393 56.608C66.3713 56.72 66.8913 56.776 67.0993 56.776C67.9633 56.776 68.7713 56.272 69.5233 55.264C70.2753 54.256 70.6513 53.224 70.6513 52.168C70.6513 51.768 70.5313 51.44 70.2913 51.184C70.0673 50.912 69.7713 50.776 69.4033 50.776C68.5233 50.776 67.5233 51.552 66.4033 53.104C65.2993 54.656 64.2593 56.576 63.2833 58.864C62.3233 61.168 61.4833 63.616 60.7633 66.208L59.3233 65.704C59.3553 65.608 59.6593 64.776 60.2353 63.208C60.7953 61.656 61.3473 60.112 61.8913 58.576C63.3953 54.352 64.1473 52.04 64.1473 51.64C64.1473 50.616 63.9393 49.688 63.5233 48.856L64.7233 48.256C65.2193 48.944 65.4673 49.672 65.4673 50.44C65.4673 51.192 65.3153 52.24 65.0113 53.584ZM80.0381 49.504C80.4381 49.504 80.7661 49.64 81.0221 49.912C81.2781 50.184 81.4061 50.536 81.4061 50.968C81.4061 51.832 80.9101 52.744 79.9181 53.704L79.3421 53.248C79.5661 52.752 79.6781 52.392 79.6781 52.168C79.6781 51.736 79.4381 51.52 78.9581 51.52C78.4781 51.52 78.0221 51.824 77.5901 52.432C77.1581 53.04 76.6461 53.984 76.0541 55.264C75.4781 56.528 75.0381 57.424 74.7341 57.952L73.3661 57.352C74.2461 55.352 74.7501 54.176 74.8781 53.824C75.3101 52.576 75.5261 50.992 75.5261 49.072L76.8701 48.712C76.8221 49.752 76.7501 50.56 76.6541 51.136C76.5581 51.696 76.3261 52.616 75.9581 53.896C77.5741 50.968 78.9341 49.504 80.0381 49.504ZM86.7454 47.824C85.8494 47.824 85.4014 47.464 85.4014 46.744C85.4014 46.344 85.5134 46.008 85.7374 45.736C85.9614 45.464 86.2494 45.328 86.6014 45.328C86.9534 45.328 87.2414 45.432 87.4654 45.64C87.6894 45.848 87.8014 46.12 87.8014 46.456C87.8014 46.792 87.7054 47.104 87.5134 47.392C87.3214 47.68 87.0654 47.824 86.7454 47.824ZM86.4334 54.904L86.9134 55.312C86.5294 56.048 86.0174 56.68 85.3774 57.208C84.7534 57.72 84.1854 57.976 83.6734 57.976C82.7774 57.976 82.3294 57.352 82.3294 56.104C82.3294 54.552 82.9694 52.528 84.2494 50.032C84.5374 49.488 84.7054 49.168 84.7534 49.072L85.7854 49.696C85.4494 50.304 85.0334 51.272 84.5374 52.6C84.0574 53.928 83.8174 54.784 83.8174 55.168C83.8174 55.536 83.8974 55.8 84.0574 55.96C84.2174 56.12 84.4094 56.2 84.6334 56.2C85.0654 56.2 85.6654 55.768 86.4334 54.904ZM96.1193 48.616L95.9033 49.552C95.6313 49.52 95.2793 49.504 94.8473 49.504C93.2473 49.504 92.4473 50.032 92.4473 51.088C92.4473 51.312 92.7673 51.968 93.4073 53.056C94.0633 54.144 94.3913 54.872 94.3913 55.24C94.3913 56.104 94.0953 56.784 93.5033 57.28C92.9273 57.76 92.1513 58 91.1753 58C89.8313 58 88.7513 57.256 87.9352 55.768L88.8473 55.12C89.0713 55.296 89.3113 55.512 89.5673 55.768C89.8233 56.008 90.0153 56.176 90.1433 56.272C90.4473 56.544 90.7833 56.68 91.1513 56.68C91.5193 56.68 91.8393 56.552 92.1113 56.296C92.3833 56.024 92.5193 55.696 92.5193 55.312C92.5193 54.912 92.1673 54.176 91.4633 53.104C90.7753 52.032 90.4313 51.28 90.4313 50.848C90.4313 50.064 90.7593 49.464 91.4153 49.048C92.0873 48.632 92.9593 48.424 94.0312 48.424C95.1193 48.424 95.8153 48.488 96.1193 48.616ZM102.937 55.168L103.489 55.6C102.993 56.288 102.313 56.864 101.449 57.328C100.585 57.776 99.7446 58 98.9286 58C98.1126 58 97.4566 57.76 96.9606 57.28C96.4646 56.8 96.2166 56.168 96.2166 55.384C96.2166 53.912 96.9926 52.464 98.5446 51.04C100.113 49.616 101.697 48.904 103.297 48.904C104.353 48.904 104.881 49.32 104.881 50.152C104.881 51.016 104.321 51.888 103.201 52.768C102.097 53.648 100.537 54.448 98.5206 55.168C98.6646 55.536 98.8886 55.824 99.1926 56.032C99.4966 56.24 99.8086 56.344 100.129 56.344C100.817 56.344 101.753 55.952 102.937 55.168ZM98.4006 54.448C99.6966 54 100.809 53.44 101.737 52.768C102.665 52.096 103.129 51.48 103.129 50.92C103.129 50.712 103.049 50.528 102.889 50.368C102.729 50.208 102.545 50.128 102.337 50.128C101.585 50.128 100.769 50.6 99.8886 51.544C99.0246 52.472 98.5286 53.44 98.4006 54.448ZM112.619 48.616L112.403 49.552C112.131 49.52 111.779 49.504 111.347 49.504C109.747 49.504 108.947 50.032 108.947 51.088C108.947 51.312 109.267 51.968 109.907 53.056C110.563 54.144 110.891 54.872 110.891 55.24C110.891 56.104 110.595 56.784 110.003 57.28C109.427 57.76 108.651 58 107.675 58C106.331 58 105.251 57.256 104.435 55.768L105.347 55.12C105.571 55.296 105.811 55.512 106.067 55.768C106.323 56.008 106.515 56.176 106.643 56.272C106.947 56.544 107.283 56.68 107.651 56.68C108.019 56.68 108.339 56.552 108.611 56.296C108.883 56.024 109.019 55.696 109.019 55.312C109.019 54.912 108.667 54.176 107.963 53.104C107.275 52.032 106.931 51.28 106.931 50.848C106.931 50.064 107.259 49.464 107.915 49.048C108.587 48.632 109.459 48.424 110.531 48.424C111.619 48.424 112.315 48.488 112.619 48.616Z" fill="#272377"/>
</svg>
